Coordinates
version=1
nRows=5
nColumns=40
inDegrees=yes

Units are S.I. units (second, meters, Newtons, ...)
Angles are in degrees.

endheader
time	pelvis_tilt	pelvis_list	pelvis_rotation	pelvis_tx	pelvis_ty	pelvis_tz	hip_flexion_r	hip_adduction_r	hip_rotation_r	knee_angle_r	knee_angle_r_beta	ankle_angle_r	subtalar_angle_r	mtp_angle_r	hip_flexion_l	hip_adduction_l	hip_rotation_l	knee_angle_l	knee_angle_l_beta	ankle_angle_l	subtalar_angle_l	mtp_angle_l	lumbar_extension	lumbar_bending	lumbar_rotation	arm_flex_r	arm_add_r	arm_rot_r	elbow_flex_r	pro_sup_r	wrist_flex_r	wrist_dev_r	arm_flex_l	arm_add_l	arm_rot_l	elbow_flex_l	pro_sup_l	wrist_flex_l	wrist_dev_l
      7.17000000	     -5.86961084	     -7.00035699	      1.09295002	      0.97847196	      0.91741933	      0.51489034	      1.22917589	      5.67641271	    -13.80497364	     11.65105789	     11.65105789	     17.37566134	      5.59648585	     -2.55247586	     34.83830620	    -10.24432083	     -1.88324295	     19.16851147	     19.16851147	      6.99571456	     -8.04690775	     11.29368974	    -10.48018177	      5.90892872	      4.23030518	     54.15918920	    -13.48707598	      1.73836250	    100.07827424	     44.46225072	      0.00000000	      0.00000000	    -13.35197417	     -6.01952031	      9.81420270	     25.03448118	     44.34854601	      0.00000000	      0.00000000
      7.18171429	     -5.75096100	     -7.09675802	      0.85766077	      0.98050317	      0.91589811	      0.51310657	      0.48599184	      5.54706238	    -13.94673945	     11.98830933	     11.98830933	     18.58810478	      6.48540205	     -0.99647614	     34.01312619	    -10.24285876	     -2.17026325	     19.10082356	     19.10082356	      3.93668474	     -9.82190679	      6.18099792	    -10.38085986	      6.06797312	      3.49968820	     55.58571845	    -12.97943737	      3.38633912	    100.79415787	     44.44731829	      0.00000000	      0.00000000	    -15.86226380	     -6.25257191	     10.46595277	     28.03468134	     44.23305563	      0.00000000	      0.00000000
      7.19342857	     -5.79923749	     -7.08643574	      0.56634674	      0.98239880	      0.91446784	      0.51138856	     -0.12368880	      5.35918061	    -13.61825924	     12.11792416	     12.11792416	     19.02832167	      6.61544503	     -1.08575776	     33.66187665	    -10.26689981	     -2.71472513	     19.79286366	     19.79286366	      3.20127429	    -10.30631210	      6.21668943	    -10.00807720	      6.02261483	      3.58749473	     56.17998142	    -12.95662319	      3.28744549	    101.22547295	     44.44259594	      0.00000000	      0.00000000	    -16.83648161	     -6.06554491	     10.56944794	     27.72039509	     44.20683717	      0.00000000	      0.00000000
      7.20514286	     -5.82033574	     -7.08852950	      0.35499651	      0.98420590	      0.91308564	      0.50939536	     -0.57464306	      5.09254132	    -13.59445234	     12.63649836	     12.63649836	     19.86029319	      7.03702851	     -0.32567310	     33.26038372	    -10.18510092	     -2.75866381	     20.32904939	     20.32904939	      1.26921435	    -11.63572171	      3.48380335	     -9.77611855	      6.03600875	      3.53046561	     56.61808528	    -12.99587242	      3.58607562	    102.65339773	     44.44060768	      0.00000000	      0.00000000	    -17.91313794	     -6.07252776	     11.29503739	     28.23474639	     44.15460826	      0.00000000	      0.00000000
      7.21685714	     -5.77025850	     -6.99241757	      0.12575902	      0.98591123	      0.91215545	      0.50738890	     -1.15689054	      4.75648615	    -13.31113249	     12.97498396	     12.97498396	     20.21494550	      7.08689662	     -0.42525583	     32.97439352	    -10.09549463	     -2.96626430	     21.30334490	     21.30334490	      0.84388358	    -12.08655214	      3.39879315	     -9.60794022	      5.89153539	      3.45140633	     56.82882365	    -13.03183927	      3.53523376	    103.00016769	     44.43598481	      0.00000000	      0.00000000	    -18.62065503	     -5.91987155	     11.38169615	     28.00930384	     44.13691654	      0.00000000	      0.00000000
